<svg width="70" height="70" viewBox="0 0 52 56" fill="none" xmlns="http://www.w3.org/2000/svg">
<path d="M2.76981 6.46423C2.80993 6.83853 3.73272 16.8412 4.80261 28.7024C5.87251 40.5636 6.78192 50.3727 6.80867 50.5276C6.86216 50.7728 7.93206 51.0955 16.304 53.4057C21.4796 54.8255 25.8528 56 25.9999 56C26.147 56 30.5202 54.8255 35.6958 53.4057C44.0678 51.0955 45.1377 50.7728 45.1912 50.5276C45.2179 50.3727 46.1273 40.5636 47.1972 28.7024C48.2671 16.8412 49.1899 6.83853 49.23 6.46423L49.3103 5.79309H25.9999H2.68957L2.76981 6.46423ZM46.2343 9.04556C46.2076 9.35532 45.3784 18.39 44.4021 29.1283C43.4125 39.8667 42.5833 48.6819 42.5565 48.7206C42.5164 48.7464 38.7718 49.8048 34.2381 51.0567L25.9865 53.3283L17.735 51.0438C13.2013 49.779 9.47003 48.7335 9.42991 48.7077C9.40316 48.6819 8.58737 39.8667 7.59771 29.1283C6.62143 18.39 5.79227 9.35532 5.76552 9.04556L5.69865 8.50348H25.9999H46.3012L46.2343 9.04556Z" fill="#1572B6"/>
<path d="M14.4414 20.2295L14.4415 20.2295L14.4425 20.2401L14.4432 20.2471H23.1914C27.6725 20.2471 30.0388 20.2502 31.2828 20.2812C31.8894 20.2963 32.2815 20.3185 32.5277 20.362C32.6343 20.3808 32.8324 20.4209 33.0088 20.5482C33.1153 20.625 33.2176 20.7356 33.2842 20.8849C33.3477 21.027 33.3565 21.155 33.3565 21.2294C33.3565 21.6223 33.0999 24.8878 33.0044 25.6861L32.9384 26.3618L32.8722 27.0388H32.1919H25.8929H20.3898L20.4362 27.8189L20.4363 27.8189L20.4367 27.8292C20.4764 28.6958 20.5558 29.873 20.5961 30.4554C20.5961 30.4561 20.5962 30.4569 20.5962 30.4576L20.6242 30.8306H25.933C28.2923 30.8306 29.8031 30.8402 30.7257 30.8647C31.1831 30.8768 31.5156 30.8931 31.7402 30.9162C31.8461 30.9271 31.9654 30.9429 32.0721 30.9722C32.1196 30.9853 32.2192 31.015 32.3226 31.0804C32.4074 31.1339 32.6878 31.3377 32.6878 31.7354H32.6879L32.6877 31.7493C32.6805 32.1402 32.574 33.593 32.4664 34.9241C32.4119 35.5976 32.3561 36.253 32.3104 36.7468C32.2876 36.9931 32.267 37.2026 32.2501 37.3552C32.2418 37.4306 32.2338 37.4979 32.2263 37.5509C32.2227 37.5763 32.218 37.607 32.2122 37.6371C32.2094 37.6515 32.2045 37.6755 32.1972 37.7032L32.197 37.7039C32.1946 37.7133 32.1719 37.8038 32.1151 37.8997L32.111 37.9067L32.1067 37.9136C32.031 38.0353 31.9384 38.1052 31.9152 38.1226L31.9143 38.1233C31.8772 38.1513 31.844 38.1714 31.8239 38.183C31.7827 38.2069 31.7422 38.2264 31.7128 38.2399C31.6509 38.2684 31.5758 38.2991 31.497 38.3299C31.3363 38.3926 31.1167 38.4722 30.8583 38.5627C30.3392 38.7444 29.6378 38.9787 28.8794 39.2248L28.8794 39.2248L28.8755 39.226L26.1206 40.1037L25.8896 40.1773L25.6592 40.1017L22.9042 39.1983L22.9022 39.1976L20.1339 38.2812L19.6583 38.1238L19.6216 37.6242L19.5012 35.985L19.4319 35.0409H17.4006H15.472L15.4868 35.2244L15.4868 35.2244L15.4873 35.2307C15.5277 35.7897 15.635 37.407 15.7154 38.8305C15.7554 39.5382 15.7954 40.1841 15.8269 40.6554C15.8338 40.7585 15.8403 40.8528 15.8463 40.9374C16.1217 41.0281 16.5089 41.155 16.9812 41.309C17.9597 41.6281 19.3025 42.0633 20.7722 42.5339L20.7736 42.5344L25.9085 44.1903L30.5333 42.7271C30.5336 42.7271 30.5338 42.727 30.5341 42.7269C33.2155 41.8729 35.6346 41.0903 35.9155 40.9917L35.9195 40.9903L36.0109 40.9588L36.0575 40.2678L36.0577 40.266C36.131 39.2171 36.5187 33.1994 36.8882 27.4059C37.0729 24.5101 37.253 21.6717 37.387 19.5404C37.4539 18.4747 37.5093 17.5861 37.548 16.9556C37.5581 16.79 37.5671 16.6423 37.5748 16.514C37.3787 16.504 37.1115 16.4949 36.7487 16.4875C35.1856 16.4554 32.0708 16.4554 25.8528 16.4554H14.1213C14.1832 17.3904 14.3545 19.4531 14.4414 20.2295ZM15.3999 40.7892C15.3869 40.7843 15.3833 40.7834 15.3981 40.7886L15.3999 40.7892ZM37.6072 15.9635C37.6072 15.96 37.6069 15.9607 37.6069 15.9651L37.6072 15.9635ZM38.0283 16.5544C38.0399 16.558 38.0466 16.5594 38.0471 16.5592C38.0476 16.5589 38.0418 16.5571 38.0283 16.5544Z" stroke="#1572B6" stroke-width="1.5"/>
</svg>
