<svg width="70" height="70" viewBox="0 0 52 56" fill="none" xmlns="http://www.w3.org/2000/svg">
<path d="M21.4676 7.85595C18.4031 8.12178 16.0877 10.5661 16.1081 13.4967C16.1149 14.6443 16.4418 15.6233 17.1296 16.5894C17.4837 17.0886 18.3622 17.8796 18.907 18.1973C19.2952 18.4178 19.3293 18.4567 19.2203 18.515C18.0081 19.1958 17.1024 20.11 16.5984 21.1733C15.6654 23.1378 16.0536 25.4784 17.5654 27.0734C17.9945 27.5272 18.5529 27.9616 19.0296 28.221C19.1931 28.3053 19.3224 28.3896 19.3224 28.409C19.3224 28.4285 19.1318 28.5452 18.9002 28.6684C18.3758 28.9536 17.5654 29.6668 17.1773 30.192C16.4418 31.171 16.1149 32.163 16.1081 33.4014C16.1081 34.3739 16.2511 34.9639 16.6869 35.8328C17.4361 37.311 18.8662 38.4197 20.5823 38.8541C21.3518 39.0486 22.673 39.0486 23.4425 38.8541C25.6081 38.303 27.2562 36.7145 27.7669 34.6852C27.8963 34.1794 27.9031 33.9201 27.9031 30.205C27.9031 28.0394 27.9236 26.2694 27.9576 26.2759C27.9849 26.2759 28.1415 26.4834 28.3117 26.7362C28.8838 27.5856 29.8712 28.3442 30.8996 28.7137C31.7032 28.999 32.282 29.0833 33.1537 29.0379C36.1842 28.8888 38.5609 26.3472 38.3702 23.462C38.3225 22.7358 38.1863 22.2366 37.8731 21.6077C37.2193 20.285 36.0684 19.306 34.5498 18.7873C34.4544 18.7549 34.5634 18.6836 35.0265 18.4631C36.6132 17.7305 37.7164 16.4792 38.2 14.8777C38.3293 14.4498 38.3566 14.2229 38.3498 13.4319C38.343 12.602 38.3225 12.4204 38.1591 11.9082C37.4372 9.63246 35.4487 8.08287 32.9698 7.85595C32.1322 7.78463 22.3393 7.77814 21.4676 7.85595ZM26.5411 13.4708V17.7824L23.8375 17.7629C20.8683 17.737 20.8547 17.7305 19.983 17.3155C17.4429 16.0966 16.6938 13.0169 18.4099 10.8449C18.9956 10.1058 20.0716 9.45092 21.0318 9.25641C21.3587 9.18509 22.1078 9.15915 24.0078 9.15915L26.5411 9.15267V13.4708ZM33.4057 9.25641C35.0333 9.56762 36.4293 10.8384 36.8584 12.3945C37.015 12.9521 37.015 13.9765 36.8584 14.5341C36.5383 15.7011 35.5917 16.8163 34.5021 17.3091C33.5419 17.7499 33.2899 17.7759 30.4297 17.7759H27.9031V13.4643V9.15267H30.3888C32.3773 9.15267 32.9834 9.17212 33.4057 9.25641ZM26.5411 23.4555V27.7736L23.9056 27.7477C20.9705 27.7153 20.8956 27.7088 19.9353 27.2549C19.1794 26.9048 18.3486 26.1008 17.9672 25.3617C17.2862 24.0391 17.3271 22.5738 18.0762 21.277C18.4439 20.6416 19.2339 19.9284 19.9422 19.5978C20.9024 19.1504 20.95 19.1439 23.9056 19.1439L26.5411 19.1374V23.4555ZM29.7691 19.4033C29.2107 19.7728 28.5637 20.3888 28.23 20.8686C28.0802 21.0955 27.944 21.277 27.9304 21.277C27.9168 21.277 27.9031 20.7972 27.9031 20.2072V19.1374H29.0404H30.1709L29.7691 19.4033ZM34.182 19.9998C34.863 20.2332 35.3533 20.5444 35.8437 21.0371C37.1921 22.3922 37.3691 24.4151 36.2727 25.9777C35.8573 26.5677 35.2989 27.028 34.6247 27.3327C33.9505 27.631 33.501 27.7282 32.7383 27.7153C30.8451 27.6958 29.1834 26.4315 28.7544 24.7004C28.625 24.1752 28.625 23.287 28.7544 22.8007C29.1221 21.4262 30.3003 20.285 31.7236 19.9155C32.4318 19.7339 33.5351 19.7664 34.182 19.9998ZM26.5275 31.6314L26.5071 34.2118L26.3232 34.7046C26.0644 35.4048 25.7035 35.9559 25.1791 36.4422C24.6615 36.935 24.1712 37.2267 23.463 37.4731C23.0135 37.6287 22.8773 37.6482 22.0124 37.6482C21.1475 37.6482 21.0113 37.6287 20.5619 37.4731C18.7504 36.8442 17.5995 35.3854 17.5042 33.5959C17.3884 31.398 18.9956 29.4918 21.2837 29.1222C21.4608 29.0963 22.7139 29.0703 24.0759 29.0639L26.5479 29.0574L26.5275 31.6314Z" fill="#1572B6"/>
<path d="M25.9999 50.7L7.42852 45.5L3.71423 1.29999H47.6666L48.2857 1.94999L44.5714 45.5L25.9999 50.7Z" stroke="#1572B6" stroke-width="2" stroke-linecap="round"/>
</svg>
