<svg width="64" height="66" viewBox="0 0 64 66" fill="none" xmlns="http://www.w3.org/2000/svg">
<g clip-path="url(#clip0_82_2)">
<path d="M0.110313 3.76158C0.16547 4.19908 1.45246 16.8542 2.96007 31.8912C4.4493 46.9444 5.7179 59.2917 5.77305 59.3241C5.80982 59.3727 11.7483 60.8796 18.9555 62.6944L32.046 66L45.2652 62.6782C57.6754 59.5509 58.4843 59.3241 58.4843 58.9838C58.4843 58.7894 59.7162 46.2315 61.2422 31.0972C62.7498 15.9468 64 3.4375 64 3.27546C64 3.01621 62.3453 3 32.0092 3H0L0.110313 3.76158ZM59.9 6.9213C59.8265 7.31019 58.705 18.588 57.3812 32.0046C56.0575 45.4213 54.8992 56.4884 54.8256 56.6181C54.6969 56.8449 32.8733 62.4514 32.1011 62.4676C31.715 62.4676 9.45016 56.8935 9.28469 56.7639C9.21115 56.6829 4.24706 7.52083 4.24706 6.71065V6.24074H32.1195H59.992L59.9 6.9213Z" fill="#1572B6"/>
<path d="M18.5062 15.9137L18.5043 15.931L18.5016 15.9483C18.4342 16.3797 18.0745 20.3852 17.6728 24.9107L17.6727 24.9109C17.2925 29.1787 16.9421 33.062 16.8619 33.7787H28.0885C32.8523 33.7787 35.8759 33.7907 37.7094 33.8208C38.6237 33.8358 39.2545 33.8555 39.6607 33.8815C39.8594 33.8942 40.0286 33.9098 40.1577 33.9319C40.2157 33.9419 40.3089 33.96 40.4033 33.9973C40.4474 34.0146 40.541 34.0548 40.6358 34.1351C40.7319 34.2165 40.9088 34.4113 40.9088 34.7208C40.9088 34.8616 40.8565 35.465 40.7889 36.207C40.7184 36.9807 40.6241 37.9757 40.5287 38.959C40.4333 39.9423 40.3367 40.9153 40.2617 41.6451C40.2242 42.0096 40.1918 42.3152 40.1676 42.5316C40.1556 42.6392 40.1452 42.7281 40.137 42.7923C40.133 42.8234 40.1287 42.855 40.1243 42.8822C40.1224 42.8941 40.1187 42.9163 40.1133 42.941C40.1111 42.9515 40.105 42.9785 40.0947 43.0114C40.0898 43.027 40.079 43.06 40.0607 43.0999C40.0605 43.1004 40.0602 43.101 40.0598 43.1018C40.0501 43.1234 39.9959 43.2437 39.8744 43.3509C39.7851 43.4296 39.6973 43.4676 39.6788 43.4756L39.6773 43.4763C39.6457 43.4901 39.6197 43.4988 39.6066 43.503C39.5794 43.5118 39.5571 43.5173 39.5477 43.5195C39.5264 43.5247 39.5071 43.5285 39.4961 43.5306C39.4717 43.5353 39.4431 43.5401 39.4147 43.5447C39.3559 43.5543 39.2744 43.5667 39.1747 43.5814C38.9743 43.6109 38.6887 43.6512 38.3395 43.6994C37.6407 43.7957 36.6814 43.9241 35.6272 44.0603C35.6271 44.0603 35.627 44.0603 35.627 44.0603C35.6268 44.0604 35.6266 44.0604 35.6265 44.0604L31.8155 44.5565L31.7191 44.5691L31.6227 44.5566L27.7748 44.0604L27.7717 44.06L23.9237 43.5478L23.3373 43.4697L23.2766 42.8813L23.1677 41.8248L23.1677 41.8248L23.1671 41.8184C23.1155 41.2718 23.0312 40.572 22.9798 40.2409H20.0839H17.3195C17.353 40.8755 17.4975 42.5403 17.6541 44.1567C17.7401 45.0451 17.8281 45.9031 17.9001 46.5404C17.9244 46.7559 17.9467 46.9437 17.9662 47.0978C17.9997 47.1059 18.035 47.1144 18.072 47.1233C18.4406 47.2117 18.9711 47.3363 19.6252 47.4882C20.9327 47.792 22.7282 48.2038 24.6967 48.6518C24.6969 48.6519 24.6971 48.6519 24.6973 48.652L31.6817 50.2309L38.6128 48.652L38.6143 48.6517C40.5637 48.2119 42.3492 47.8002 43.6557 47.4927C44.3093 47.3389 44.8413 47.2115 45.2135 47.1199C45.2562 47.1093 45.2967 47.0993 45.3348 47.0898C45.3441 47.0142 45.3542 46.9296 45.3651 46.8362C45.4201 46.3649 45.4935 45.6874 45.5795 44.8524C45.7516 43.1832 45.9736 40.8934 46.2003 38.383L46.2005 38.3803C46.6165 33.9505 46.9946 29.9786 47.1168 28.8758H36.2745C33.0604 28.8758 30.1217 28.8638 27.9809 28.8418C26.9112 28.8308 26.0375 28.8172 25.4274 28.8013C25.1235 28.7934 24.8788 28.7847 24.706 28.7751C24.6217 28.7704 24.5428 28.7649 24.4791 28.7578C24.4502 28.7546 24.4042 28.7489 24.3555 28.7384C24.3342 28.7338 24.2839 28.7224 24.2249 28.6992C24.196 28.6878 24.1408 28.6642 24.0786 28.6225C24.0276 28.5883 23.8952 28.4918 23.8116 28.3076L23.8116 28.3076C23.7718 28.2197 23.7582 28.1464 23.7549 28.1285L23.7545 28.1265C23.7473 28.0881 23.7439 28.0552 23.7422 28.0352C23.7385 27.9938 23.7373 27.9529 23.7369 27.9206C23.7359 27.8533 23.7375 27.7701 23.7405 27.679C23.7465 27.4941 23.7595 27.2413 23.7778 26.9416C23.8145 26.3403 23.8739 25.5303 23.9468 24.6541L23.9474 24.6475L24.2378 21.4941L24.3006 20.8129H24.9847H32.7351H40.4855H41.0668L41.2118 21.3757L41.3019 21.7252C41.302 21.7258 41.3021 21.7263 41.3023 21.7268C41.3736 22.0009 41.4856 22.7679 41.541 23.4474L41.5987 24.0143H44.3517C45.6967 24.0143 46.4971 24.0077 46.9726 23.9829C46.9458 23.7579 46.9115 23.4789 46.8715 23.1598C46.7711 22.3586 46.6358 21.3118 46.4963 20.2521C46.2366 18.2783 45.9676 16.2977 45.8816 15.75H32.1724H18.5241L18.5062 15.9137ZM24.6943 24.7163L24.6942 24.7163L24.6943 24.7163Z" stroke="#1572B6" stroke-width="1.5"/>
</g>
<defs>
<clipPath id="clip0_82_2">
<rect width="64" height="66" fill="white"/>
</clipPath>
</defs>
</svg>
