<svg width="70" height="70" viewBox="0 0 48 52" fill="none" xmlns="http://www.w3.org/2000/svg">
<path d="M0.900863 1.14833L0.900835 1.14803C0.895752 1.09316 0.914003 1.03436 0.95904 0.986898C1.00867 0.934593 1.08353 0.9 1.16868 0.9H46.8314C46.916 0.9 46.9904 0.934157 47.04 0.985911C47.0865 1.0355 47.1041 1.09547 47.0992 1.14803L47.0992 1.14837L42.9878 45.7175C42.9878 45.7176 42.9878 45.7178 42.9878 45.7179C42.9804 45.7957 42.9199 45.887 42.7999 45.9202L24.0772 51.0885C24.0768 51.0887 24.0763 51.0888 24.0758 51.0889C24.048 51.0963 24.0192 51.1 23.993 51.1C23.9668 51.1 23.938 51.0963 23.9102 51.0889C23.9097 51.0888 23.9092 51.0887 23.9088 51.0885L10.9765 47.5155L5.20251 45.9202C5.08231 45.8869 5.02187 45.7955 5.01458 45.7176C5.01458 45.7176 5.01458 45.7175 5.01457 45.7175L0.900863 1.14833ZM9.04043 29.657L7.90717 29.3529V30.5263V36.1163V36.8066L8.57396 36.9855L21.4294 40.4345L22.5627 40.7385V39.5652V10.1739V9.27391H21.6627H16.9879H16.0879V10.1739V31.5482L9.04043 29.657ZM40.156 22.6087V21.5769L39.1337 21.717L31.9121 22.7073V15.5957H39.9583H40.7817L40.8548 14.7756L41.258 10.2538L41.3454 9.27391H40.3615H26.3374H25.4374V10.1739V29.3913V30.4537L26.4853 30.2791L33.5419 29.1031L33.3724 31.5628L26.1062 33.4943L25.2464 33.7228L25.465 34.5852L26.6967 39.446L26.9204 40.3288L27.8005 40.0947L39.4873 36.986L40.156 36.8082V36.1163V22.6087Z" stroke="#1572B6" stroke-width="1.8"/>
</svg>
