<svg width="166" height="48" viewBox="0 0 166 48" fill="none" xmlns="http://www.w3.org/2000/svg">
<path d="M26.8 46L24.64 37.06H12.52L10.42 46H0.219971L12.76 4.42002H24.7L37.24 46H26.8ZM14.2 29.92H22.96L18.58 11.56L14.2 29.92Z" fill="#345779" fill-opacity="0.2"/>
<path d="M58.1706 13.12C61.9706 13.12 64.8906 14.62 66.9306 17.62C68.9706 20.58 69.9906 24.74 69.9906 30.1C69.9906 33.38 69.4706 36.3 68.4306 38.86C67.4306 41.42 65.9706 43.42 64.0506 44.86C62.1706 46.3 59.9306 47.02 57.3306 47.02C55.6106 47.02 54.0306 46.66 52.5906 45.94C51.1906 45.22 49.9906 44.22 48.9906 42.94L48.5106 46H40.1106V1.48002L49.5906 0.460022V17.38C50.5506 16.06 51.7706 15.02 53.2506 14.26C54.7706 13.5 56.4106 13.12 58.1706 13.12ZM54.5706 40.12C58.2906 40.12 60.1506 36.78 60.1506 30.1C60.1506 26.3 59.7106 23.68 58.8306 22.24C57.9506 20.8 56.6706 20.08 54.9906 20.08C52.8706 20.08 51.0706 21.32 49.5906 23.8V37.06C50.1906 38.02 50.9106 38.78 51.7506 39.34C52.6306 39.86 53.5706 40.12 54.5706 40.12Z" fill="#345779" fill-opacity="0.2"/>
<path d="M89.7114 13.12C94.5914 13.12 98.4114 14.62 101.171 17.62C103.931 20.58 105.311 24.74 105.311 30.1C105.311 33.5 104.671 36.48 103.391 39.04C102.151 41.56 100.351 43.52 97.9914 44.92C95.6714 46.32 92.9114 47.02 89.7114 47.02C84.8714 47.02 81.0514 45.54 78.2514 42.58C75.4914 39.58 74.1114 35.4 74.1114 30.04C74.1114 26.64 74.7314 23.68 75.9714 21.16C77.2514 18.6 79.0514 16.62 81.3714 15.22C83.7314 13.82 86.5114 13.12 89.7114 13.12ZM89.7114 20.08C87.7914 20.08 86.3514 20.9 85.3914 22.54C84.4314 24.14 83.9514 26.64 83.9514 30.04C83.9514 33.52 84.4114 36.06 85.3314 37.66C86.2914 39.26 87.7514 40.06 89.7114 40.06C91.6314 40.06 93.0714 39.26 94.0314 37.66C94.9914 36.02 95.4714 33.5 95.4714 30.1C95.4714 26.62 94.9914 24.08 94.0314 22.48C93.1114 20.88 91.6714 20.08 89.7114 20.08Z" fill="#345779" fill-opacity="0.2"/>
<path d="M137.83 46H129.61L129.19 41.98C126.87 45.34 123.65 47.02 119.53 47.02C116.61 47.02 114.39 46.14 112.87 44.38C111.39 42.62 110.65 40.16 110.65 37V14.14H120.13V35.8C120.13 37.36 120.37 38.46 120.85 39.1C121.37 39.7 122.15 40 123.19 40C125.19 40 126.91 38.76 128.35 36.28V14.14H137.83V46Z" fill="#345779" fill-opacity="0.2"/>
<path d="M165.266 44.5C164.106 45.3 162.746 45.92 161.186 46.36C159.666 46.8 158.146 47.02 156.626 47.02C149.666 46.98 146.186 43.14 146.186 35.5V20.74H141.686V14.14H146.186V7.24002L155.666 6.16002V14.14H162.986L161.966 20.74H155.666V35.38C155.666 36.86 155.906 37.92 156.386 38.56C156.866 39.2 157.626 39.52 158.666 39.52C159.746 39.52 160.886 39.18 162.086 38.5L165.266 44.5Z" fill="#345779" fill-opacity="0.2"/>
</svg>
