<svg width="20" height="20" viewBox="
0 0 48 48" fill="none" xmlns="http://www.w3.org/2000/svg">
<path d="M11.4286 0C5.1299 0 0 5.12991 0 11.4286V36.5714C0 42.8701 5.1299 48 11.4286 48H36.5714C42.8701 48 48 42.8701 48 36.5714V11.4286C48 5.12991 42.8701 0 36.5714 0H11.4286ZM11.4286 2.28571H36.5714C41.635 2.28571 45.7143 6.36495 45.7143 11.4286V36.5714C45.7143 41.635 41.635 45.7143 36.5714 45.7143H11.4286C6.36495 45.7143 2.28571 41.635 2.28571 36.5714V11.4286C2.28571 6.36495 6.36495 2.28571 11.4286 2.28571ZM16.0558 8.05134C13.7183 7.95033 11.9441 8.8385 10.8281 9.90625C10.2701 10.4401 9.86724 11.0114 9.59152 11.5446C9.3158 12.0779 9.14062 12.5176 9.14062 13.0893C9.14062 13.0384 9.12807 13.3057 9.12054 13.6161C9.11299 13.9265 9.11437 14.3449 9.14286 14.8504C9.19995 15.8615 9.37131 17.2291 9.82589 18.8504C10.7351 22.0932 12.7822 26.347 17.2232 30.7879C21.6642 35.2289 25.9177 37.2758 29.1607 38.1853C30.7822 38.64 32.1496 38.8111 33.1607 38.8683C33.6663 38.8969 34.0824 38.8981 34.3929 38.8906C34.7033 38.8831 34.9726 38.8705 34.9219 38.8705C35.4936 38.8705 35.9332 38.6954 36.4665 38.4196C36.9998 38.1439 37.571 37.7411 38.1049 37.183C39.1727 36.067 40.0608 34.2929 39.9598 31.9554C39.9119 30.8405 39.2929 29.8533 38.3795 29.2679C37.6735 28.8155 36.5777 28.1134 35.1473 27.1987C33.4878 26.1384 31.3652 26.0626 29.6339 27.0112L29.7321 26.9621L28.3862 27.5402L28.2879 27.6094C27.9608 27.8391 27.5556 27.8816 27.1875 27.7277C26.1564 27.2965 24.5497 26.4493 23.0558 24.9554C21.5619 23.4615 20.7147 21.8548 20.2835 20.8237C20.1295 20.4556 20.1721 20.0504 20.4018 19.7232L20.471 19.625L21.0491 18.279L21 18.3772C21.9483 16.6464 21.8746 14.5239 20.8125 12.8638C19.8978 11.4335 19.1956 10.3376 18.7433 9.6317C18.1579 8.71823 17.1706 8.09927 16.0558 8.05134ZM15.9576 10.3348C16.2782 10.3486 16.6092 10.5362 16.8192 10.8638C17.272 11.5705 17.9745 12.6669 18.8884 14.096C19.4949 15.044 19.5375 16.2898 18.9955 17.279L18.9688 17.3281L18.4174 18.6161L18.5312 18.4085C17.8558 19.3705 17.7201 20.6197 18.1741 21.7054C18.6892 22.9371 19.6742 24.8059 21.4397 26.5714C23.2053 28.337 25.0741 29.322 26.3058 29.8371C27.3914 30.2911 28.6407 30.1554 29.6027 29.4799L29.3951 29.5938L30.683 29.0424L30.7321 29.0156C31.7209 28.4739 32.9667 28.519 33.9152 29.125V29.1228C35.3443 30.0367 36.4407 30.7392 37.1473 31.192C37.475 31.402 37.6626 31.733 37.6763 32.0536C37.7513 33.7892 37.1485 34.8758 36.4531 35.6027C36.1054 35.9661 35.7284 36.2298 35.4174 36.3906C35.1064 36.5514 34.809 36.5848 34.9219 36.5848C34.7123 36.5848 34.6019 36.5986 34.3393 36.6049C34.0767 36.6113 33.7247 36.6117 33.2902 36.5871C32.4211 36.5379 31.2214 36.3895 29.7768 35.9844C26.8875 35.1741 23.0143 33.3469 18.8393 29.1719C14.6643 24.9969 12.8368 21.1234 12.0268 18.2344C11.6218 16.7899 11.4732 15.59 11.4241 14.721C11.3996 14.2865 11.3999 13.9344 11.4063 13.6719C11.4127 13.4093 11.4263 13.2991 11.4263 13.0893C11.4263 13.2021 11.4598 12.9047 11.6205 12.5938C11.7813 12.2828 12.0451 11.9057 12.4085 11.558C13.1353 10.8626 14.222 10.2598 15.9576 10.3348Z" fill="#83A2C0"/>
</svg>
