<svg width="20" height="20" viewBox="0 0 48 36" fill="none" xmlns="http://www.w3.org/2000/svg">
<path d="M4.5 0C2.03125 0 0.011719 1.98887 0 4.42485C0 4.42485 0 4.4287 0 4.43256C0 4.43641 0 4.43641 0 4.44027V31.0819C0 33.5217 2.02734 35.5221 4.5 35.5221H43.5C45.9727 35.5221 48 33.5217 48 31.0819V4.44027C48 4.43641 48 4.43641 48 4.43256C48 4.4287 48 4.42485 48 4.42485C47.9883 1.98887 45.9688 0 43.5 0H4.5ZM7.10156 1.97345H40.9023L24 13.5983L7.10156 1.97345ZM3.77344 2.08908L24 16.0035L44.2305 2.08908C45.2539 2.39358 45.9922 3.31093 46 4.4287C45.9961 4.63684 45.7812 5.05311 45.4688 5.38845C45.1523 5.72763 44.8438 5.93963 44.8438 5.93963L44.8398 5.94733L24 20.5015L3.16016 5.94733L3.15625 5.93963C3.15625 5.93963 2.84766 5.72763 2.53125 5.38845C2.21875 5.05311 2.00391 4.63684 2 4.4287C2.00781 3.31093 2.74609 2.39358 3.77344 2.08908ZM2 7.55076L2.00781 7.55847L2.01562 7.56233V7.56618L5 9.64756V33.5487H4.5C3.10938 33.5487 2 32.454 2 31.0819V7.55076ZM46 7.55076V31.0819C46 32.454 44.8906 33.5487 43.5 33.5487H43V9.64756L45.9844 7.56618V7.56233L46 7.55076ZM7 11.0428L24 22.9144L41 11.0428V33.5487H7V11.0428Z" fill="#8EB2D4"/>
</svg>
