<svg width="20" height="20" viewBox="0 0 52 52" fill="none" xmlns="http://www.w3.org/2000/svg">
<path d="M13.6094 4.73273C12.4312 5.32179 11.6594 8.20616 11.8422 11.4359L11.9437 13.4874L11.1516 14.9296C9.54687 17.8749 9.12031 21.7343 9.95312 25.7968C10.9891 30.8343 14.3406 34.5718 19.1547 36.0749C20.0687 36.3593 20.2922 36.5015 20.1906 36.7452C20.1297 36.928 20.0281 37.6593 19.9672 38.3905C19.9062 39.1218 19.7437 39.7718 19.6219 39.853C19.2359 40.1171 16.9812 40.0359 15.925 39.7109C14.5844 39.3249 13.4672 38.5327 11.375 36.5624C10.2172 35.4655 9.16094 34.6734 8.16562 34.1859C6.78437 33.4952 6.64219 33.4749 5.89062 33.6984C4.91562 33.9827 4.36719 34.714 4.36719 35.7702C4.36719 36.6843 4.95625 37.3749 6.21562 37.9843C6.68281 38.228 7.84062 39.1624 8.79531 40.0765C11.7812 42.9609 14.1375 44.0577 17.7328 44.2405L19.9062 44.3421V45.1749C19.9062 46.3124 20.2719 46.9624 21.1859 47.389C21.8156 47.714 22.0391 47.7343 22.6484 47.5312C23.0344 47.4093 23.5422 47.064 23.7656 46.7796C24.1312 46.2921 24.1719 45.9468 24.1719 42.4734C24.1922 38.3702 24.3141 37.7202 25.3094 36.3999C26.1016 35.3843 26.1219 34.1655 25.3703 33.3937C24.9641 32.9874 24.4156 32.7843 22.9328 32.4999C21.8766 32.2968 20.6578 31.9921 20.1906 31.8296C15.8437 30.2655 14.0359 27.2796 13.9953 21.6937C13.975 19.4593 14.2797 18.3421 15.3562 16.3515C16.2297 14.7468 16.4937 13.4468 16.2906 11.7405C16.0875 10.1562 16.1891 8.93741 16.5344 8.93741C16.9203 8.93741 19.2156 10.0749 20.3531 10.8468C21.5922 11.6999 21.7953 11.6999 24.375 11.1718C26.4062 10.7452 30.1641 10.6437 31.8906 10.9484C32.3984 11.0499 33.4547 11.2327 34.2469 11.3952L35.6891 11.639L37.1922 10.7046C38.8375 9.68898 40.7672 8.81554 40.9703 8.99835C41.0312 9.05929 41.0516 9.83116 41.0109 10.7046C40.8891 14.2593 40.9094 14.3609 42.0672 16.7577C43.1437 18.9515 43.1641 18.9718 43.225 21.1452C43.3672 24.8827 42.4531 27.8484 40.625 29.6765C39.1422 31.139 37.1109 32.0327 34.1453 32.5202C32.5609 32.764 31.8297 33.1296 31.525 33.8202C31.1187 34.6734 31.2406 35.4046 31.9109 36.3187C32.9266 37.7202 33.1094 38.6546 33.1094 42.6765C33.1094 46.2312 33.1094 46.2921 33.6172 46.8812C34.2266 47.6124 35.0187 47.7952 35.8922 47.4296C37.1516 46.9015 37.2125 46.6374 37.1312 41.5999C37.0906 39.1015 36.9891 36.928 36.8875 36.7249C36.7656 36.4609 36.9484 36.339 37.9234 36.0546C41.4172 35.039 44.2406 32.764 45.7844 29.6765C47.0641 27.0765 47.4297 25.3499 47.4297 21.6327C47.4297 18.2609 47.2672 17.489 45.9672 14.9702L45.2562 13.6093L45.2156 10.603C45.175 8.02335 45.1141 7.4546 44.7078 6.45929C44.0781 4.83429 43.55 4.46866 41.8234 4.46866C40.1984 4.46866 37.8828 5.22023 35.9531 6.39835L34.7547 7.1296L33.0687 6.8046C30.8953 6.39835 26.4469 6.39835 24.1516 6.8046L22.3844 7.10929L20.9828 6.27648C18.1797 4.67179 15.0516 4.00148 13.6094 4.73273Z" fill="#70879D"/>
</svg>
