<svg width="20" height="20" viewBox="0 0 48 48" fill="none" xmlns="http://www.w3.org/2000/svg">
<g clip-path="url(#clip0_66_20)">
<path d="M5.61563 0.318798C0.740631 1.34067 -1.54687 6.86255 1.18126 10.9875C1.68751 11.7469 2.67188 12.675 3.47813 13.1532C4.90313 13.9969 6.92813 14.2875 8.53126 13.8844C9.85313 13.5563 10.7813 13.0313 11.775 12.0469C12.7219 11.1188 13.1813 10.3782 13.575 9.2063C13.7906 8.5688 13.8188 8.33442 13.8188 7.12505C13.8188 5.87817 13.8 5.70005 13.5656 5.01567C13.1813 3.90942 12.6375 3.0563 11.775 2.20317C10.9406 1.37817 10.0313 0.834423 8.85938 0.468798C8.01563 0.206298 6.47813 0.140673 5.61563 0.318798ZM7.90313 3.14067C8.70938 3.34692 9.35626 3.71255 9.89063 4.2563C11.2969 5.70942 11.4469 8.01567 10.2375 9.60942C9.48751 10.5938 8.44688 11.1469 7.19063 11.2313C5.05313 11.3625 3.25313 9.92817 2.88751 7.7813C2.40001 4.9313 5.11876 2.4188 7.90313 3.14067Z" fill="#7E9BB7"/>
<path d="M33.5156 14.3062C31.725 14.6344 29.8969 15.3937 28.5656 16.35C28.1625 16.6406 27.8156 16.875 27.7875 16.875C27.7687 16.875 27.75 16.4719 27.75 15.9844V15.0937H21.7969H15.8438V31.4531V47.8125H22.0312H28.2187V38.8781C28.2187 33.6656 28.2562 29.7281 28.3125 29.4094C28.6406 27.4031 30.5344 25.9969 32.4469 26.3344C33.6844 26.55 34.6687 27.2906 35.1937 28.4062L35.4844 29.0156L35.5125 38.4187L35.5312 47.8125H41.7656H48.0094L47.9719 36.1594C47.9437 24.6844 47.9437 24.5062 47.7469 23.7187C47.1469 21.3094 46.1437 19.4437 44.5875 17.8594C42.8625 16.1062 40.7719 14.9531 38.2875 14.3906C37.3406 14.175 34.4812 14.1187 33.5156 14.3062ZM38.0812 17.2312C39.1687 17.5219 40.1719 17.9719 41.0625 18.5719C41.8969 19.1344 43.05 20.25 43.5844 21.0375C44.0531 21.7219 44.6906 23.1187 44.925 24L45.1312 24.7969L45.1594 34.8937L45.1969 45H41.775H38.3531L38.325 36.8156L38.2969 28.6406L38.0062 27.8344C36.7969 24.4594 33.1781 22.6687 29.8594 23.8125C28.8562 24.1594 28.1906 24.5812 27.3656 25.4062C26.7187 26.0531 26.4844 26.3531 26.175 27C25.4156 28.5469 25.4625 27.9469 25.425 36.9656L25.3969 45H22.0312H18.6562V31.4531V17.9062H21.7969H24.9375V19.9219V21.9375H26.0625H27.1781L27.6375 21.2531C29.1094 19.0875 31.1344 17.7 33.6562 17.1469C34.7531 16.9031 37.0219 16.95 38.0812 17.2312Z" fill="#7E9BB7"/>
<path d="M0.75 31.4531V47.8125H6.9375H13.125V31.4531V15.0937H6.9375H0.75V31.4531ZM10.3125 31.4531V45H6.9375H3.5625V31.4531V17.9062H6.9375H10.3125V31.4531Z" fill="#7E9BB7"/>
</g>
<defs>
<clipPath id="clip0_66_20">
<rect width="48" height="48" fill="white"/>
</clipPath>
</defs>
</svg>
