<svg width="219" height="63" viewBox="0 0 219 63" fill="none" xmlns="http://www.w3.org/2000/svg">
<path d="M14.3399 7.41997C19.8199 7.41997 24.0799 8.55997 27.1199 10.84C30.1599 13.12 31.6799 16.5 31.6799 20.98C31.6799 25.66 30.1799 29.2 27.1799 31.6C24.2199 33.96 20.2399 35.14 15.2399 35.14H10.7399V49H0.899902V7.41997H14.3399ZM14.3999 28.06C16.7199 28.06 18.4799 27.52 19.6799 26.44C20.9199 25.32 21.5399 23.5 21.5399 20.98C21.5399 16.62 19.0999 14.44 14.2199 14.44H10.7399V28.06H14.3999Z" fill="#345779" fill-opacity="0.2"/>
<path d="M52.8046 16.24C53.9646 16.24 55.0246 16.38 55.9846 16.66L54.4846 25.84C53.2846 25.56 52.3246 25.42 51.6046 25.42C49.7246 25.42 48.2846 26.08 47.2846 27.4C46.3246 28.68 45.5646 30.62 45.0046 33.22V49H35.5246V17.14H43.8046L44.5846 23.32C45.3046 21.12 46.3846 19.4 47.8246 18.16C49.3046 16.88 50.9646 16.24 52.8046 16.24Z" fill="#345779" fill-opacity="0.2"/>
<path d="M71.5902 16.12C76.4702 16.12 80.2902 17.62 83.0502 20.62C85.8102 23.58 87.1902 27.74 87.1902 33.1C87.1902 36.5 86.5502 39.48 85.2702 42.04C84.0302 44.56 82.2302 46.52 79.8702 47.92C77.5502 49.32 74.7902 50.02 71.5902 50.02C66.7502 50.02 62.9302 48.54 60.1302 45.58C57.3702 42.58 55.9902 38.4 55.9902 33.04C55.9902 29.64 56.6102 26.68 57.8502 24.16C59.1302 21.6 60.9302 19.62 63.2502 18.22C65.6102 16.82 68.3902 16.12 71.5902 16.12ZM71.5902 23.08C69.6702 23.08 68.2302 23.9 67.2702 25.54C66.3102 27.14 65.8302 29.64 65.8302 33.04C65.8302 36.52 66.2902 39.06 67.2102 40.66C68.1702 42.26 69.6302 43.06 71.5902 43.06C73.5102 43.06 74.9502 42.26 75.9102 40.66C76.8702 39.02 77.3502 36.5 77.3502 33.1C77.3502 29.62 76.8702 27.08 75.9102 25.48C74.9902 23.88 73.5502 23.08 71.5902 23.08Z" fill="#345779" fill-opacity="0.2"/>
<path d="M102.249 45.4C102.249 48.72 101.709 51.46 100.629 53.62C99.5893 55.78 98.1493 57.5 96.3093 58.78C94.5093 60.1 92.2293 61.26 89.4693 62.26L86.2893 55.36C87.8493 54.64 89.0693 53.94 89.9493 53.26C90.8293 52.58 91.5093 51.66 91.9893 50.5C92.5093 49.38 92.7693 47.88 92.7693 46V17.14H102.249V45.4ZM97.5093 0.339966C99.1493 0.339966 100.489 0.859966 101.529 1.89997C102.609 2.89997 103.149 4.17997 103.149 5.73997C103.149 7.29997 102.609 8.59997 101.529 9.63997C100.489 10.64 99.1493 11.14 97.5093 11.14C95.8693 11.14 94.5293 10.64 93.4893 9.63997C92.4493 8.59997 91.9293 7.29997 91.9293 5.73997C91.9293 4.17997 92.4493 2.89997 93.4893 1.89997C94.5293 0.859966 95.8693 0.339966 97.5093 0.339966Z" fill="#345779" fill-opacity="0.2"/>
<path d="M137.484 32.44C137.484 33.76 137.424 34.9 137.304 35.86H117.564C117.884 38.54 118.644 40.42 119.844 41.5C121.044 42.58 122.704 43.12 124.824 43.12C126.104 43.12 127.344 42.9 128.544 42.46C129.744 41.98 131.044 41.26 132.444 40.3L136.344 45.58C132.624 48.54 128.484 50.02 123.924 50.02C118.764 50.02 114.804 48.5 112.044 45.46C109.284 42.42 107.904 38.34 107.904 33.22C107.904 29.98 108.484 27.08 109.644 24.52C110.804 21.92 112.504 19.88 114.744 18.4C116.984 16.88 119.664 16.12 122.784 16.12C127.384 16.12 130.984 17.56 133.584 20.44C136.184 23.32 137.484 27.32 137.484 32.44ZM128.184 29.74C128.104 24.86 126.384 22.42 123.024 22.42C121.384 22.42 120.104 23.02 119.184 24.22C118.304 25.42 117.764 27.4 117.564 30.16H128.184V29.74Z" fill="#345779" fill-opacity="0.2"/>
<path d="M156.61 16.12C158.81 16.12 160.79 16.44 162.55 17.08C164.31 17.72 165.97 18.7 167.53 20.02L163.45 25.66C161.45 24.14 159.43 23.38 157.39 23.38C155.27 23.38 153.67 24.16 152.59 25.72C151.51 27.28 150.97 29.8 150.97 33.28C150.97 36.64 151.51 39.02 152.59 40.42C153.67 41.82 155.23 42.52 157.27 42.52C158.35 42.52 159.33 42.36 160.21 42.04C161.09 41.68 162.15 41.12 163.39 40.36L167.53 46.24C164.37 48.76 160.79 50.02 156.79 50.02C153.55 50.02 150.75 49.34 148.39 47.98C146.03 46.58 144.21 44.64 142.93 42.16C141.65 39.64 141.01 36.7 141.01 33.34C141.01 29.98 141.65 27 142.93 24.4C144.21 21.8 146.03 19.78 148.39 18.34C150.75 16.86 153.49 16.12 156.61 16.12Z" fill="#345779" fill-opacity="0.2"/>
<path d="M191.501 47.5C190.341 48.3 188.981 48.92 187.421 49.36C185.901 49.8 184.381 50.02 182.861 50.02C175.901 49.98 172.421 46.14 172.421 38.5V23.74H167.921V17.14H172.421V10.24L181.901 9.15997V17.14H189.221L188.201 23.74H181.901V38.38C181.901 39.86 182.141 40.92 182.621 41.56C183.101 42.2 183.861 42.52 184.901 42.52C185.981 42.52 187.121 42.18 188.321 41.5L191.501 47.5Z" fill="#345779" fill-opacity="0.2"/>
<path d="M205.885 16.12C208.165 16.12 210.305 16.46 212.305 17.14C214.305 17.82 216.065 18.78 217.585 20.02L214.105 25.36C211.505 23.72 208.885 22.9 206.245 22.9C205.005 22.9 204.045 23.12 203.365 23.56C202.725 23.96 202.405 24.54 202.405 25.3C202.405 25.9 202.545 26.4 202.825 26.8C203.145 27.16 203.765 27.54 204.685 27.94C205.605 28.34 207.025 28.82 208.945 29.38C212.265 30.34 214.725 31.6 216.325 33.16C217.965 34.68 218.785 36.8 218.785 39.52C218.785 41.68 218.165 43.56 216.925 45.16C215.685 46.72 213.985 47.92 211.825 48.76C209.665 49.6 207.265 50.02 204.625 50.02C201.945 50.02 199.445 49.6 197.125 48.76C194.845 47.92 192.905 46.76 191.305 45.28L195.925 40.12C198.605 42.2 201.425 43.24 204.385 43.24C205.825 43.24 206.945 42.98 207.745 42.46C208.585 41.94 209.005 41.2 209.005 40.24C209.005 39.48 208.845 38.88 208.525 38.44C208.205 38 207.585 37.6 206.665 37.24C205.745 36.84 204.285 36.36 202.285 35.8C199.125 34.88 196.765 33.6 195.205 31.96C193.645 30.32 192.865 28.28 192.865 25.84C192.865 24 193.385 22.36 194.425 20.92C195.505 19.44 197.025 18.28 198.985 17.44C200.985 16.56 203.285 16.12 205.885 16.12Z" fill="#345779" fill-opacity="0.2"/>
</svg>
