<svg width="184" height="45" viewBox="0 0 184 45" fill="none" xmlns="http://www.w3.org/2000/svg">
<path d="M17.28 0.400024C20.4 0.400024 23.1 0.840025 25.38 1.72003C27.7 2.60003 29.8 3.94003 31.68 5.74002L27.12 11.08C24.28 8.76003 21.24 7.60002 18 7.60002C16.28 7.60002 14.92 7.96002 13.92 8.68003C12.92 9.36003 12.42 10.36 12.42 11.68C12.42 12.6 12.64 13.36 13.08 13.96C13.52 14.52 14.3 15.06 15.42 15.58C16.54 16.1 18.22 16.72 20.46 17.44C24.7 18.8 27.82 20.48 29.82 22.48C31.82 24.44 32.82 27.24 32.82 30.88C32.82 33.48 32.16 35.78 30.84 37.78C29.52 39.74 27.62 41.28 25.14 42.4C22.66 43.48 19.72 44.02 16.32 44.02C12.92 44.02 9.90004 43.48 7.26004 42.4C4.66004 41.32 2.42004 39.88 0.540039 38.08L5.52004 32.62C7.12004 33.98 8.76004 35 10.44 35.68C12.16 36.36 14.02 36.7 16.02 36.7C18.06 36.7 19.66 36.26 20.82 35.38C22.02 34.46 22.62 33.2 22.62 31.6C22.62 30.56 22.4 29.7 21.96 29.02C21.52 28.3 20.76 27.66 19.68 27.1C18.6 26.54 17.04 25.94 15 25.3C10.4 23.9 7.12004 22.18 5.16004 20.14C3.24004 18.1 2.28004 15.52 2.28004 12.4C2.28004 10 2.92004 7.90002 4.20004 6.10003C5.48004 4.26003 7.26004 2.86002 9.54004 1.90002C11.82 0.900024 14.4 0.400024 17.28 0.400024Z" fill="#345779" fill-opacity="0.2"/>
<path d="M48.076 1.42003V43H38.236V1.42003H48.076ZM71.956 1.42003L58.696 20.08L73.036 43H61.636L48.376 20.8L61.576 1.42003H71.956Z" fill="#345779" fill-opacity="0.2"/>
<path d="M86.0447 1.42003V43H76.2047V1.42003H86.0447Z" fill="#345779" fill-opacity="0.2"/>
<path d="M103.623 1.42003V35.2H119.823L118.803 43H93.7829V1.42003H103.623Z" fill="#345779" fill-opacity="0.2"/>
<path d="M134.385 1.42003V35.2H150.585L149.565 43H124.545V1.42003H134.385Z" fill="#345779" fill-opacity="0.2"/>
<path d="M167.983 0.400024C171.103 0.400024 173.803 0.840025 176.083 1.72003C178.403 2.60003 180.503 3.94003 182.383 5.74002L177.823 11.08C174.983 8.76003 171.943 7.60002 168.703 7.60002C166.983 7.60002 165.623 7.96002 164.623 8.68003C163.623 9.36003 163.123 10.36 163.123 11.68C163.123 12.6 163.343 13.36 163.783 13.96C164.223 14.52 165.003 15.06 166.123 15.58C167.243 16.1 168.923 16.72 171.163 17.44C175.403 18.8 178.523 20.48 180.523 22.48C182.523 24.44 183.523 27.24 183.523 30.88C183.523 33.48 182.863 35.78 181.543 37.78C180.223 39.74 178.323 41.28 175.843 42.4C173.363 43.48 170.423 44.02 167.023 44.02C163.623 44.02 160.603 43.48 157.963 42.4C155.363 41.32 153.123 39.88 151.243 38.08L156.223 32.62C157.823 33.98 159.463 35 161.143 35.68C162.863 36.36 164.723 36.7 166.723 36.7C168.763 36.7 170.363 36.26 171.523 35.38C172.723 34.46 173.323 33.2 173.323 31.6C173.323 30.56 173.103 29.7 172.663 29.02C172.223 28.3 171.463 27.66 170.383 27.1C169.303 26.54 167.743 25.94 165.703 25.3C161.103 23.9 157.823 22.18 155.863 20.14C153.943 18.1 152.983 15.52 152.983 12.4C152.983 10 153.623 7.90002 154.903 6.10003C156.183 4.26003 157.963 2.86002 160.243 1.90002C162.523 0.900024 165.103 0.400024 167.983 0.400024Z" fill="#345779" fill-opacity="0.2"/>
</svg>
